<?xml version="1.0" encoding="utf-8"?>
<!-- Generator: Adobe Illustrator 21.0.0, SVG Export Plug-In . SVG Version: 6.00 Build 0)  -->
<svg version="1.1" id="Layer_1" xmlns="http://www.w3.org/2000/svg" xmlns:xlink="http://www.w3.org/1999/xlink" x="0px" y="0px"
	 viewBox="0 0 512 512" style="enable-background:new 0 0 512 512;" xml:space="preserve">
<style type="text/css">
	.st0{fill:#75B4E2;}
	.st1{fill:#FFFFFF;}
	.st2{fill:#E85558;}
	.st3{fill:#FBC749;}
	.st4{fill:#18171D;}
</style>
<g id="Image_Sharing">
	<g>
		<path class="st0" d="M407.5,235.2c-37.1-2.8-66.9-32.5-69.6-69.6H52.1v223.8l81.7-93.3l61.1,69.8l96.1-109.8l116.6,133.3V235.2z
			 M125,252.9c-17.5,0-31.8-14.3-31.8-31.8c0-17.5,14.3-31.8,31.8-31.8c17.5,0,31.8,14.3,31.8,31.8
			C156.8,238.6,142.6,252.9,125,252.9z M177.4,218v-11.3h52.4V218H177.4z M264.7,252.9h-52.4v-11.3h52.4V252.9z"/>
		<path class="st1" d="M418.8,410.1h-378V154.3h297.1c0.2-2.1,0.4-4.2,0.7-6.2h-304v268.1H425V234.5c-2,0.3-4.1,0.5-6.2,0.7V410.1z"
			/>
		<path class="st1" d="M430.6,136.9c6.5,0,11.8-5.3,11.8-11.8c0-6.5-5.3-11.8-11.8-11.8s-11.8,5.3-11.8,11.8
			C418.8,131.6,424.1,136.9,430.6,136.9z"/>
		<polygon class="st2" points="290.9,273.3 181.1,398.8 400.7,398.8 		"/>
		<path class="st1" d="M430.6,206.7c6.5,0,11.8-5.3,11.8-11.8s-5.3-11.8-11.8-11.8s-11.8,5.3-11.8,11.8S424.1,206.7,430.6,206.7z"/>
		<path class="st1" d="M378.2,148.1c-6.5,0-11.8,5.3-11.8,11.8s5.3,11.8,11.8,11.8c6.5,0,11.8-5.3,11.8-11.8
			S384.8,148.1,378.2,148.1z"/>
		<path class="st3" d="M413.2,95.7c-35.4,0-64.2,28.8-64.2,64.2c0,35.4,28.8,64.2,64.2,64.2c35.4,0,64.2-28.8,64.2-64.2
			C477.4,124.6,448.6,95.7,413.2,95.7z M401.3,160c0,2.5-0.4,4.9-1.2,7.2l14.6,11c4.1-3.9,9.7-6.4,15.9-6.4
			c12.7,0,23.1,10.4,23.1,23.1c0,12.7-10.4,23.1-23.1,23.1c-12.7,0-23.1-10.4-23.1-23.1c0-2.5,0.4-4.9,1.2-7.2l-14.6-11
			c-4.1,3.9-9.7,6.4-15.9,6.4c-12.7,0-23.1-10.4-23.1-23.1c0-12.7,10.4-23.1,23.1-23.1c6.2,0,11.7,2.4,15.9,6.4l14.6-11
			c-0.7-2.3-1.2-4.7-1.2-7.2c0-12.7,10.4-23.1,23.1-23.1c12.7,0,23.1,10.4,23.1,23.1s-10.4,23.1-23.1,23.1c-6.2,0-11.7-2.4-15.9-6.4
			l-14.6,11C400.9,155,401.3,157.5,401.3,160z"/>
		<polygon class="st2" points="58.9,398.8 166.1,398.8 187.4,374.5 133.7,313.2 		"/>
		<path class="st3" d="M125,200.5c-11.3,0-20.6,9.2-20.6,20.6c0,11.3,9.2,20.6,20.6,20.6c11.3,0,20.6-9.2,20.6-20.6
			C145.6,209.7,136.4,200.5,125,200.5z"/>
		<path class="st4" d="M125,189.3c-17.5,0-31.8,14.3-31.8,31.8c0,17.5,14.3,31.8,31.8,31.8c17.5,0,31.8-14.3,31.8-31.8
			C156.8,203.5,142.6,189.3,125,189.3z M125,241.6c-11.3,0-20.6-9.2-20.6-20.6c0-11.3,9.2-20.6,20.6-20.6c11.3,0,20.6,9.2,20.6,20.6
			C145.6,232.4,136.4,241.6,125,241.6z"/>
		<rect x="177.4" y="206.7" class="st4" width="52.4" height="11.3"/>
		<rect x="212.3" y="241.6" class="st4" width="52.4" height="11.3"/>
		<path class="st4" d="M430.6,148.1c12.7,0,23.1-10.4,23.1-23.1s-10.4-23.1-23.1-23.1c-12.7,0-23.1,10.4-23.1,23.1
			c0,2.5,0.4,4.9,1.2,7.2l-14.6,11c-4.1-3.9-9.7-6.4-15.9-6.4c-12.7,0-23.1,10.4-23.1,23.1c0,12.7,10.4,23.1,23.1,23.1
			c6.2,0,11.7-2.4,15.9-6.4l14.6,11c-0.7,2.3-1.2,4.7-1.2,7.2c0,12.7,10.4,23.1,23.1,23.1c12.7,0,23.1-10.4,23.1-23.1
			c0-12.7-10.4-23.1-23.1-23.1c-6.2,0-11.7,2.4-15.9,6.4l-14.6-11c0.7-2.3,1.2-4.7,1.2-7.2c0-2.5-0.4-4.9-1.2-7.2l14.6-11
			C418.9,145.7,424.5,148.1,430.6,148.1z M430.6,113.2c6.5,0,11.8,5.3,11.8,11.8c0,6.5-5.3,11.8-11.8,11.8s-11.8-5.3-11.8-11.8
			C418.8,118.5,424.1,113.2,430.6,113.2z M378.2,171.8c-6.5,0-11.8-5.3-11.8-11.8s5.3-11.8,11.8-11.8c6.5,0,11.8,5.3,11.8,11.8
			S384.8,171.8,378.2,171.8z M430.6,183.1c6.5,0,11.8,5.3,11.8,11.8s-5.3,11.8-11.8,11.8s-11.8-5.3-11.8-11.8
			S424.1,183.1,430.6,183.1z"/>
		<path class="st4" d="M413.2,84.5c-33.6,0-62.1,22-71.8,52.4H23.4v290.6h412.9V231.8c30.4-9.8,52.4-38.3,52.4-71.8
			C488.6,118.3,454.8,84.5,413.2,84.5z M290.9,273.3l109.8,125.5H181.1L290.9,273.3z M166.1,398.8H58.9l74.9-85.6l53.6,61.3
			L166.1,398.8z M290.9,256.2L194.9,366l-61.1-69.8l-81.7,93.3V165.6h285.8c2.8,37.1,32.5,66.9,69.6,69.6v154.2L290.9,256.2z
			 M425,416.3H34.6V148.1h304c-0.3,2-0.5,4.1-0.7,6.2H40.8v255.7h378V235.2c2.1-0.2,4.2-0.4,6.2-0.7V416.3z M413.2,224.2
			c-35.4,0-64.2-28.8-64.2-64.2c0-35.4,28.8-64.2,64.2-64.2c35.4,0,64.2,28.8,64.2,64.2C477.4,195.4,448.6,224.2,413.2,224.2z"/>
	</g>
</g>
</svg>
